<?xml version="1.0" encoding="UTF-8"?>
<!DOCTYPE svg PUBLIC "-//W3C//DTD SVG 1.1//EN" "http://www.w3.org/Graphics/SVG/1.1/DTD/svg11.dtd">
<svg xmlns="http://www.w3.org/2000/svg" xmlns:xlink="http://www.w3.org/1999/xlink" version="1.1" width="1017" height="566" viewBox="-0.5 -0.5 1017 566"><defs><clipPath id="mx-clip-4-31-262-154-0"><rect x="4" y="31" width="262" height="154"/></clipPath><clipPath id="mx-clip-4-185-262-220-0"><rect x="4" y="185" width="262" height="220"/></clipPath><clipPath id="mx-clip-554-71-182-24-0"><rect x="554" y="71" width="182" height="24"/></clipPath><clipPath id="mx-clip-554-95-182-60-0"><rect x="554" y="95" width="182" height="60"/></clipPath><clipPath id="mx-clip-294-501-112-60-0"><rect x="294" y="501" width="112" height="60"/></clipPath><clipPath id="mx-clip-434-501-122-60-0"><rect x="434" y="501" width="122" height="60"/></clipPath><clipPath id="mx-clip-584-501-122-60-0"><rect x="584" y="501" width="122" height="60"/></clipPath><clipPath id="mx-clip-734-501-122-60-0"><rect x="734" y="501" width="122" height="60"/></clipPath><clipPath id="mx-clip-884-501-122-60-0"><rect x="884" y="501" width="122" height="60"/></clipPath><clipPath id="mx-clip-554-251-182-30-0"><rect x="554" y="251" width="182" height="30"/></clipPath><filter id="dropShadow"><feGaussianBlur in="SourceAlpha" stdDeviation="1.7" result="blur"/><feOffset in="blur" dx="3" dy="3" result="offsetBlur"/><feFlood flood-color="#3D4574" flood-opacity="0.4" result="offsetColor"/><feComposite in="offsetColor" in2="offsetBlur" operator="in" result="offsetBlur"/><feBlend in="SourceGraphic" in2="offsetBlur"/></filter></defs><g filter="url(#dropShadow)"><path d="M 0 26 L 0 0 L 270 0 L 270 26" fill="none" stroke="#000000" stroke-miterlimit="10" pointer-events="all"/><path d="M 0 26 L 0 400 L 270 400 L 270 26" fill="none" stroke="#000000" stroke-miterlimit="10" pointer-events="none"/><path d="M 0 26 L 270 26" fill="none" stroke="#000000" stroke-miterlimit="10" pointer-events="none"/><g fill="#000000" font-family="Helvetica" text-anchor="middle" font-size="12px"><text x="134.5" y="17.33">ControladorJuego</text></g><g fill="#000000" font-family="Helvetica" clip-path="url(#mx-clip-4-31-262-154-0)" font-size="12px"><text x="5.5" y="43.5">...</text><text x="5.5" y="71.5">Enum estados {  </text><text x="5.5" y="85.5">  inicio  </text><text x="5.5" y="99.5">  sacaJugador1  </text><text x="5.5" y="113.5">  sacaJugador2 </text><text x="5.5" y="127.5">  jugando  </text><text x="5.5" y="141.5">  pinchado  </text><text x="5.5" y="155.5">  ...</text><text x="5.5" y="169.5">  }</text></g><g fill="#000000" font-family="Helvetica" clip-path="url(#mx-clip-4-185-262-220-0)" font-size="12px"><text x="5.5" y="197.5">void Update() {</text><text x="5.5" y="211.5">  switch(estados)</text><text x="5.5" y="225.5">    case inicio:</text><text x="5.5" y="239.5">      ...</text><text x="5.5" y="253.5">    case jugando:</text><text x="5.5" y="267.5">      ...</text><text x="5.5" y="281.5">    case sacaJugador1:</text><text x="5.5" y="295.5">      ...</text><text x="5.5" y="309.5">     case sacaJugador2:</text><text x="5.5" y="323.5">      ...</text><text x="5.5" y="337.5">    case jugando:</text><text x="5.5" y="351.5">      ...</text><text x="5.5" y="365.5">    case pinchado:</text><text x="5.5" y="379.5">      ...</text><text x="5.5" y="393.5">}</text></g><path d="M 350.5 99.5 L 350.5 89.5 L 380 89.5 L 410.5 89.5 L 410.5 79 L 429.5 94.5 L 410.5 110 L 410.5 99.5 L 380 99.5 Q 380 99.5 380 99.5 Z" fill="none" stroke="#000000" stroke-linejoin="round" stroke-miterlimit="10" pointer-events="none"/><path d="M 410.5 89.5 L 410.5 79 L 429.5 94.5 L 410.5 110 L 410.5 99.5" fill="none" stroke="#000000" stroke-linejoin="flat" stroke-miterlimit="4" pointer-events="none"/><path d="M 645.33 150.33 L 645.33 213.97" fill="none" stroke="#000000" stroke-miterlimit="10" pointer-events="none"/><path d="M 645.33 219.22 L 641.83 212.22 L 645.33 213.97 L 648.83 212.22 Z" fill="#000000" stroke="#000000" stroke-miterlimit="10" pointer-events="none"/><path d="M 550 66 L 550 40 L 740 40 L 740 66" fill="none" stroke="#000000" stroke-miterlimit="10" pointer-events="none"/><path d="M 550 66 L 550 150 L 740 150 L 740 66" fill="none" stroke="#000000" stroke-miterlimit="10" pointer-events="none"/><path d="M 550 66 L 740 66" fill="none" stroke="#000000" stroke-miterlimit="10" pointer-events="none"/><g fill="#000000" font-family="Helvetica" text-anchor="middle" font-size="12px"><text x="644.5" y="57.33">ControladorJuego</text></g><g fill="#000000" font-family="Helvetica" clip-path="url(#mx-clip-554-71-182-24-0)" font-size="12px"><text x="555.5" y="83.5">Estado estado</text></g><g fill="#000000" font-family="Helvetica" clip-path="url(#mx-clip-554-95-182-60-0)" font-size="12px"><text x="555.5" y="107.5">void Update() {</text><text x="555.5" y="121.5">  estado.Ejecutar();</text><text x="555.5" y="135.5">}</text></g><path d="M 290 496 L 290 470 L 410 470 L 410 496" fill="none" stroke="#000000" stroke-miterlimit="10" pointer-events="none"/><path d="M 290 496 L 290 556 L 410 556 L 410 496" fill="none" stroke="#000000" stroke-miterlimit="10" pointer-events="none"/><path d="M 290 496 L 410 496" fill="none" stroke="#000000" stroke-miterlimit="10" pointer-events="none"/><g fill="#000000" font-family="Helvetica" text-anchor="middle" font-size="12px"><text x="349.5" y="487.33">EstadoInicio</text></g><g fill="#000000" font-family="Helvetica" clip-path="url(#mx-clip-294-501-112-60-0)" font-size="12px"><text x="295.5" y="513.5">void Ejecutar() {</text><text x="295.5" y="541.5">}</text></g><path d="M 430 496 L 430 470 L 560 470 L 560 496" fill="none" stroke="#000000" stroke-miterlimit="10" pointer-events="none"/><path d="M 430 496 L 430 556 L 560 556 L 560 496" fill="none" stroke="#000000" stroke-miterlimit="10" pointer-events="none"/><path d="M 430 496 L 560 496" fill="none" stroke="#000000" stroke-miterlimit="10" pointer-events="none"/><g fill="#000000" font-family="Helvetica" text-anchor="middle" font-size="12px"><text x="494.5" y="487.33">EstadosacaJugador1</text></g><g fill="#000000" font-family="Helvetica" clip-path="url(#mx-clip-434-501-122-60-0)" font-size="12px"><text x="435.5" y="513.5">void Ejecutar() {</text><text x="435.5" y="541.5">}</text></g><path d="M 580 496 L 580 470 L 710 470 L 710 496" fill="none" stroke="#000000" stroke-miterlimit="10" pointer-events="none"/><path d="M 580 496 L 580 556 L 710 556 L 710 496" fill="none" stroke="#000000" stroke-miterlimit="10" pointer-events="none"/><path d="M 580 496 L 710 496" fill="none" stroke="#000000" stroke-miterlimit="10" pointer-events="none"/><g fill="#000000" font-family="Helvetica" text-anchor="middle" font-size="12px"><text x="644.5" y="487.33">EstadosacaJugador2</text></g><g fill="#000000" font-family="Helvetica" clip-path="url(#mx-clip-584-501-122-60-0)" font-size="12px"><text x="585.5" y="513.5">void Ejecutar() {</text><text x="585.5" y="541.5">}</text></g><path d="M 730 496 L 730 470 L 860 470 L 860 496" fill="none" stroke="#000000" stroke-miterlimit="10" pointer-events="none"/><path d="M 730 496 L 730 556 L 860 556 L 860 496" fill="none" stroke="#000000" stroke-miterlimit="10" pointer-events="none"/><path d="M 730 496 L 860 496" fill="none" stroke="#000000" stroke-miterlimit="10" pointer-events="none"/><g fill="#000000" font-family="Helvetica" text-anchor="middle" font-size="12px"><text x="794.5" y="487.33">EstadoJugando</text></g><g fill="#000000" font-family="Helvetica" clip-path="url(#mx-clip-734-501-122-60-0)" font-size="12px"><text x="735.5" y="513.5">void Ejecutar() {</text><text x="735.5" y="541.5">}</text></g><path d="M 880 496 L 880 470 L 1010 470 L 1010 496" fill="none" stroke="#000000" stroke-miterlimit="10" pointer-events="none"/><path d="M 880 496 L 880 556 L 1010 556 L 1010 496" fill="none" stroke="#000000" stroke-miterlimit="10" pointer-events="none"/><path d="M 880 496 L 1010 496" fill="none" stroke="#000000" stroke-miterlimit="10" pointer-events="none"/><g fill="#000000" font-family="Helvetica" text-anchor="middle" font-size="12px"><text x="944.5" y="487.33">EstadoPinchado</text></g><g fill="#000000" font-family="Helvetica" clip-path="url(#mx-clip-884-501-122-60-0)" font-size="12px"><text x="885.5" y="513.5">void Ejecutar() {</text><text x="885.5" y="541.5">}</text></g><path d="M 645.33 276.17 L 645.33 372.83 L 645.33 463.63" fill="none" stroke="#000000" stroke-miterlimit="10" pointer-events="none"/><path d="M 645.33 468.88 L 641.83 461.88 L 645.33 463.63 L 648.83 461.88 Z" fill="#000000" stroke="#000000" stroke-miterlimit="10" pointer-events="none"/><path d="M 645.33 276.17 L 645.33 372.83 L 495.33 372.83 L 495.33 463.63" fill="none" stroke="#000000" stroke-miterlimit="10" pointer-events="none"/><path d="M 495.33 468.88 L 491.83 461.88 L 495.33 463.63 L 498.83 461.88 Z" fill="#000000" stroke="#000000" stroke-miterlimit="10" pointer-events="none"/><path d="M 645.33 276.17 L 645.33 372.83 L 795.33 372.83 L 795.33 463.63" fill="none" stroke="#000000" stroke-miterlimit="10" pointer-events="none"/><path d="M 795.33 468.88 L 791.83 461.88 L 795.33 463.63 L 798.83 461.88 Z" fill="#000000" stroke="#000000" stroke-miterlimit="10" pointer-events="none"/><path d="M 645.33 276.17 L 645.33 372.83 L 945.33 372.83 L 945.33 463.63" fill="none" stroke="#000000" stroke-miterlimit="10" pointer-events="none"/><path d="M 945.33 468.88 L 941.83 461.88 L 945.33 463.63 L 948.83 461.88 Z" fill="#000000" stroke="#000000" stroke-miterlimit="10" pointer-events="none"/><path d="M 645.33 276.17 L 645.33 372.83 L 350.33 372.83 L 350.33 463.63" fill="none" stroke="#000000" stroke-miterlimit="10" pointer-events="none"/><path d="M 350.33 468.88 L 346.83 461.88 L 350.33 463.63 L 353.83 461.88 Z" fill="#000000" stroke="#000000" stroke-miterlimit="10" pointer-events="none"/><path d="M 550 246 L 550 220 L 740 220 L 740 246" fill="none" stroke="#000000" stroke-miterlimit="10" pointer-events="none"/><path d="M 550 246 L 550 276 L 740 276 L 740 246" fill="none" stroke="#000000" stroke-miterlimit="10" pointer-events="none"/><path d="M 550 246 L 740 246" fill="none" stroke="#000000" stroke-miterlimit="10" pointer-events="none"/><g fill="#000000" font-family="Helvetica" text-anchor="middle" font-size="12px"><text x="644.5" y="237.33">Estado</text></g><g fill="#000000" font-family="Helvetica" clip-path="url(#mx-clip-554-251-182-30-0)" font-size="12px"><text x="555.5" y="263.5">void Ejecutar()</text></g></g></svg>